<svg width="91" height="92" viewBox="0 0 91 92" fill="none" xmlns="http://www.w3.org/2000/svg">
<path d="M91 81.0143H10.0351V0.197266H7.07017V11.3802H0V14.3777H7.07017V42.0469H0V45.0444H7.07017V72.7135H0V75.711H7.07017V84.0118H16.6491V91.1597H19.7281V84.0118H46.9825V91.1597H50.0614V84.0118H77.3158V91.1597H80.3947V84.0118H91V81.0143Z" fill="#2300B0"/>
<path d="M91 81.0143H10.0351V0.197266H7.07017V11.3802H0V14.3777H7.07017V42.0469H0V45.0444H7.07017V72.7135H0V75.711H7.07017V84.0118H16.6491V91.1597H19.7281V84.0118H46.9825V91.1597H50.0614V84.0118H77.3158V91.1597H80.3947V84.0118H91V81.0143Z" fill="url(#paint0_linear)"/>
<path d="M41.1672 31.3272L55.7637 51.8485L66.2549 44.4701L83.3602 60.034L85.2988 57.8435L66.483 40.5503L56.4479 47.5828L42.1935 27.4074L30.562 32.9412L17.562 16.5703L15.2812 18.5302L29.6497 36.7458L41.1672 31.3272Z" fill="#2300B0"/>
<path d="M41.1672 31.3272L55.7637 51.8485L66.2549 44.4701L83.3602 60.034L85.2988 57.8435L66.483 40.5503L56.4479 47.5828L42.1935 27.4074L30.562 32.9412L17.562 16.5703L15.2812 18.5302L29.6497 36.7458L41.1672 31.3272Z" fill="url(#paint1_linear)"/>
<defs>
<linearGradient id="paint0_linear" x1="45.5" y1="0.197266" x2="45.5" y2="91.1597" gradientUnits="userSpaceOnUse">
<stop stop-color="#FF008B"/>
<stop offset="1" stop-color="white" stop-opacity="0"/>
</linearGradient>
<linearGradient id="paint1_linear" x1="50.29" y1="16.5703" x2="50.29" y2="60.034" gradientUnits="userSpaceOnUse">
<stop stop-color="#FF008B"/>
<stop offset="1" stop-color="white" stop-opacity="0"/>
</linearGradient>
</defs>
</svg>
