<svg width="23" height="20" viewBox="0 0 23 20" fill="none" xmlns="http://www.w3.org/2000/svg">
<path d="M22.2974 18.6119L20.8161 5.27822C20.7823 4.97236 20.6369 4.68971 20.4076 4.48449C20.1783 4.27927 19.8813 4.16593 19.5736 4.16621H15.7162C15.6123 3.02764 15.0866 1.96903 14.2422 1.1982C13.3979 0.427366 12.2958 0 11.1525 0C10.0092 0 8.90724 0.427366 8.06287 1.1982C7.2185 1.96903 6.69276 3.02764 6.58887 4.16621H2.73147C2.42376 4.16593 2.12677 4.27927 1.89748 4.48449C1.66819 4.68971 1.52274 4.97236 1.48904 5.27822L0.00764358 18.6119C-0.0117673 18.7867 0.00589339 18.9635 0.0594723 19.1309C0.113051 19.2984 0.201343 19.4526 0.318584 19.5836C0.435824 19.7146 0.579376 19.8194 0.739866 19.8912C0.900356 19.9629 1.07417 20 1.24997 20H21.055C21.2308 20 21.4047 19.9629 21.5652 19.8912C21.7257 19.8194 21.8692 19.7147 21.9865 19.5837C22.1037 19.4527 22.192 19.2984 22.2456 19.131C22.2992 18.9635 22.3169 18.7867 22.2974 18.6119V18.6119ZM11.1525 0.832785C12.0746 0.834012 12.9639 1.17443 13.6511 1.78917C14.3384 2.40392 14.7754 3.25001 14.8789 4.16621H7.42619C7.52973 3.25001 7.96674 2.40392 8.65394 1.78917C9.34115 1.17443 10.2305 0.834012 11.1525 0.832785V0.832785ZM21.3655 19.0279C21.3267 19.0718 21.2789 19.1069 21.2253 19.1308C21.1718 19.1548 21.1138 19.167 21.0551 19.1666H1.24997C1.19137 19.1666 1.13343 19.1543 1.07994 19.1303C1.02644 19.1064 0.978594 19.0715 0.939518 19.0278C0.900441 18.9842 0.871014 18.9327 0.853158 18.8769C0.835303 18.8211 0.829421 18.7622 0.835896 18.7039L2.3174 5.37021C2.32864 5.26827 2.37711 5.17407 2.45353 5.10567C2.52994 5.03727 2.62892 4.99949 2.73147 4.99957H19.5736C19.6762 4.99949 19.7751 5.03727 19.8516 5.10567C19.928 5.17407 19.9765 5.26827 19.9877 5.37021L21.4692 18.7039C21.476 18.7622 21.4703 18.8212 21.4524 18.8771C21.4345 18.933 21.4049 18.9844 21.3655 19.0279Z" fill="black"/>
</svg>
