<svg width="18" height="20" viewBox="0 0 18 20" fill="none" xmlns="http://www.w3.org/2000/svg">
<path d="M8.74963 1.24995C9.5784 1.24995 10.3732 1.57917 10.9592 2.1652C11.5453 2.75123 11.8745 3.54605 11.8745 4.37482V4.99979H5.62476V4.37482C5.62476 3.54605 5.95399 2.75123 6.54002 2.1652C7.12604 1.57917 7.92087 1.24995 8.74963 1.24995V1.24995ZM13.1245 4.99979V4.37482C13.1245 3.21454 12.6635 2.10179 11.8431 1.28135C11.0227 0.460917 9.90991 0 8.74963 0C7.58936 0 6.47661 0.460917 5.65617 1.28135C4.83573 2.10179 4.37482 3.21454 4.37482 4.37482V4.99979H0V17.4993C0 18.1623 0.263381 18.7981 0.732202 19.267C1.20102 19.7358 1.83688 19.9992 2.4999 19.9992H14.9994C15.6624 19.9992 16.2982 19.7358 16.7671 19.267C17.2359 18.7981 17.4993 18.1623 17.4993 17.4993V4.99979H13.1245ZM1.24995 6.24974H16.2493V17.4993C16.2493 17.8308 16.1176 18.1487 15.8832 18.3831C15.6488 18.6175 15.3309 18.7492 14.9994 18.7492H2.4999C2.16839 18.7492 1.85046 18.6175 1.61605 18.3831C1.38164 18.1487 1.24995 17.8308 1.24995 17.4993V6.24974Z" fill="#2300B0"/>
</svg>
