<svg width="21" height="18" viewBox="0 0 21 18" fill="none" xmlns="http://www.w3.org/2000/svg">
<path d="M10.4928 17.226L10.1448 16.936C2.66281 10.846 0.632812 8.7 0.632812 5.22C0.632812 2.32 2.95281 0 5.85281 0C8.23081 0 9.56481 1.334 10.4928 2.378C11.4208 1.334 12.7548 0 15.1328 0C18.0328 0 20.3528 2.32 20.3528 5.22C20.3528 8.7 18.3228 10.846 10.8408 16.936L10.4928 17.226ZM5.85281 1.16C3.59081 1.16 1.79281 2.958 1.79281 5.22C1.79281 8.178 3.64881 10.15 10.4928 15.718C17.3368 10.15 19.1928 8.178 19.1928 5.22C19.1928 2.958 17.3948 1.16 15.1328 1.16C13.1028 1.16 12.0008 2.378 11.1308 3.364L10.4928 4.118L9.85481 3.364C8.98481 2.378 7.88281 1.16 5.85281 1.16Z" fill="black"/>
</svg>
