<svg width="20" height="20" viewBox="0 0 20 20" fill="none" xmlns="http://www.w3.org/2000/svg">
<path d="M18.871 0H1.12903C0.483871 0 0 0.516129 0 1.12903V18.871C0 19.5161 0.516129 20 1.12903 20H10.6774V12.2258H8.09677V9.22581H10.6774V7C10.6774 4.41935 12.2258 3 14.5484 3C15.3226 3 16.0968 3.03226 16.871 3.12903V5.80645H15.3226C14.0968 5.80645 13.8387 6.3871 13.8387 7.25806V9.16129H16.7742L16.3548 12.1935H13.7742V19.871H18.871C19.5161 19.871 20 19.3871 20 18.7419V1.12903C19.9677 0.483871 19.4516 0 18.871 0Z" fill="#2300B0"/>
</svg>
