<svg width="20" height="20" viewBox="0 0 20 20" fill="none" xmlns="http://www.w3.org/2000/svg">
<path d="M10.031 13.7417C12.0976 13.7417 13.7729 12.0664 13.7729 9.99975C13.7729 7.93313 12.0976 6.25781 10.031 6.25781C7.96438 6.25781 6.28906 7.93313 6.28906 9.99975C6.28906 12.0664 7.96438 13.7417 10.031 13.7417Z" fill="#2300B0"/>
<path d="M14.0968 0H5.90323C2.64516 0 0 2.64516 0 5.90323V14.0323C0 17.3548 2.64516 20 5.90323 20H14.0323C17.3548 20 20 17.3548 20 14.0968V5.90323C20 2.64516 17.3548 0 14.0968 0ZM10.0323 14.9032C7.29032 14.9032 5.12903 12.6774 5.12903 10C5.12903 7.32258 7.32258 5.09677 10.0323 5.09677C12.7097 5.09677 14.9032 7.32258 14.9032 10C14.9032 12.6774 12.7419 14.9032 10.0323 14.9032ZM16.8065 5.54839C16.4839 5.90323 16 6.09677 15.4516 6.09677C14.9677 6.09677 14.4839 5.90323 14.0968 5.54839C13.7419 5.19355 13.5484 4.74194 13.5484 4.19355C13.5484 3.64516 13.7419 3.22581 14.0968 2.83871C14.4516 2.45161 14.9032 2.25806 15.4516 2.25806C15.9355 2.25806 16.4516 2.45161 16.8065 2.80645C17.129 3.22581 17.3548 3.70968 17.3548 4.22581C17.3226 4.74194 17.129 5.19355 16.8065 5.54839Z" fill="#2300B0"/>
<path d="M15.4851 3.41992C15.0658 3.41992 14.7109 3.77476 14.7109 4.19412C14.7109 4.61347 15.0658 4.96831 15.4851 4.96831C15.9045 4.96831 16.2593 4.61347 16.2593 4.19412C16.2593 3.77476 15.9367 3.41992 15.4851 3.41992Z" fill="#2300B0"/>
</svg>
