<svg width="84" height="88" viewBox="0 0 84 88" fill="none" xmlns="http://www.w3.org/2000/svg">
<path d="M82.2739 44.356H80.9112L69.4644 11.2785H71.2813C73.5525 11.2785 73.5525 7.787 71.2813 7.787H43.7545V1.72279C43.7545 -0.574263 40.3023 -0.574263 40.3023 1.72279V7.787H12.8663C10.5951 7.787 10.5951 11.2785 12.8663 11.2785H14.5924L3.23646 44.356H1.78289C1.32866 44.356 0.874418 44.5398 0.511027 44.9073C-1.57847 47.1125 2.50968 63.2837 17.0453 63.2837C32.3985 63.2837 37.0318 44.356 32.3077 44.356H30.945L19.4982 11.2785H40.3023V73.8502H17.6812C16.6819 73.8502 15.9551 74.6771 15.9551 75.5959V86.2542C15.9551 87.2649 16.7728 88 17.6812 88H66.3756C67.3749 88 68.1017 87.1731 68.1017 86.2542V75.6878C68.1017 74.6771 67.284 73.942 66.3756 73.942H43.7545V11.2785H64.5586L53.2026 44.356C52.0216 44.356 51.2949 44.1723 50.5681 44.9073C48.3877 47.1125 52.4759 63.2837 67.0115 63.2837C76.4596 63.2837 84 55.5656 84 46.1018C84 45.183 83.2732 44.356 82.2739 44.356ZM3.69069 47.8476H4.50832C14.4107 47.8476 20.5884 47.8476 30.4907 47.8476C28.4012 63.7431 5.68934 63.4675 3.69069 47.8476ZM6.87036 44.356L17.0453 14.8619L27.2202 44.356H6.87036ZM64.6495 84.4166H19.4073V77.3417H64.6495V84.4166ZM67.0115 14.8619L77.1864 44.356H56.8366L67.0115 14.8619ZM53.6569 47.8476C63.1959 47.8476 71.1905 47.8476 80.4569 47.8476C78.4583 63.7431 55.6555 63.4675 53.6569 47.8476Z" fill="#2300B0"/>
<path d="M82.2739 44.356H80.9112L69.4644 11.2785H71.2813C73.5525 11.2785 73.5525 7.787 71.2813 7.787H43.7545V1.72279C43.7545 -0.574263 40.3023 -0.574263 40.3023 1.72279V7.787H12.8663C10.5951 7.787 10.5951 11.2785 12.8663 11.2785H14.5924L3.23646 44.356H1.78289C1.32866 44.356 0.874418 44.5398 0.511027 44.9073C-1.57847 47.1125 2.50968 63.2837 17.0453 63.2837C32.3985 63.2837 37.0318 44.356 32.3077 44.356H30.945L19.4982 11.2785H40.3023V73.8502H17.6812C16.6819 73.8502 15.9551 74.6771 15.9551 75.5959V86.2542C15.9551 87.2649 16.7728 88 17.6812 88H66.3756C67.3749 88 68.1017 87.1731 68.1017 86.2542V75.6878C68.1017 74.6771 67.284 73.942 66.3756 73.942H43.7545V11.2785H64.5586L53.2026 44.356C52.0216 44.356 51.2949 44.1723 50.5681 44.9073C48.3877 47.1125 52.4759 63.2837 67.0115 63.2837C76.4596 63.2837 84 55.5656 84 46.1018C84 45.183 83.2732 44.356 82.2739 44.356ZM3.69069 47.8476H4.50832C14.4107 47.8476 20.5884 47.8476 30.4907 47.8476C28.4012 63.7431 5.68934 63.4675 3.69069 47.8476ZM6.87036 44.356L17.0453 14.8619L27.2202 44.356H6.87036ZM64.6495 84.4166H19.4073V77.3417H64.6495V84.4166ZM67.0115 14.8619L77.1864 44.356H56.8366L67.0115 14.8619ZM53.6569 47.8476C63.1959 47.8476 71.1905 47.8476 80.4569 47.8476C78.4583 63.7431 55.6555 63.4675 53.6569 47.8476Z" fill="url(#paint0_linear)"/>
<defs>
<linearGradient id="paint0_linear" x1="42" y1="0" x2="42" y2="88" gradientUnits="userSpaceOnUse">
<stop stop-color="#FF008B"/>
<stop offset="1" stop-color="white" stop-opacity="0"/>
</linearGradient>
</defs>
</svg>
