<svg width="50" height="56" viewBox="0 0 50 56" fill="none" xmlns="http://www.w3.org/2000/svg">
<path d="M27.0279 25.4298C34.3197 25.4298 40.231 19.961 40.231 13.2149C40.231 6.46879 34.3197 1 27.0279 1C19.736 1 13.8247 6.46879 13.8247 13.2149C13.8247 19.961 19.736 25.4298 27.0279 25.4298Z" fill="black" stroke="black" stroke-miterlimit="10"/>
<path d="M26.6482 1.05273H1V25.4294H26.6482V1.05273Z" fill="black" stroke="black" stroke-miterlimit="10"/>
<path d="M34.2033 55.241C42.3753 55.241 48.9999 49.1626 48.9999 41.6645C48.9999 34.1663 42.3753 28.0879 34.2033 28.0879C26.0314 28.0879 19.4067 34.1663 19.4067 41.6645C19.4067 49.1626 26.0314 55.241 34.2033 55.241Z" fill="black" stroke="black" stroke-width="0.75" stroke-miterlimit="10"/>
<path d="M35.3382 28.1484H1V55.1808H35.3382V28.1484Z" fill="black" stroke="black" stroke-miterlimit="10"/>
<path d="M26.5257 21.3673C31.3926 21.3673 35.338 17.7173 35.338 13.2149C35.338 8.71244 31.3926 5.0625 26.5257 5.0625C21.6588 5.0625 17.7134 8.71244 17.7134 13.2149C17.7134 17.7173 21.6588 21.3673 26.5257 21.3673Z" fill="#FA15FF" stroke="#FA15FF" stroke-miterlimit="10"/>
</svg>
