<svg width="20" height="20" viewBox="0 0 20 20" fill="none" xmlns="http://www.w3.org/2000/svg">
<path d="M9.85079 11.2602C6.73942 11.2602 4.2207 8.74144 4.2207 5.63008C4.2207 2.51872 6.73942 0 9.85079 0C12.9621 0 15.4809 2.51872 15.4809 5.63008C15.4809 8.74144 12.9621 11.2602 9.85079 11.2602ZM9.85079 0.765494C7.15921 0.765494 4.9615 2.9632 4.9615 5.65478C4.9615 8.34635 7.15921 10.5194 9.85079 10.5194C12.5424 10.5194 14.7401 8.32166 14.7401 5.63008C14.7401 2.93851 12.5424 0.765494 9.85079 0.765494Z" fill="black"/>
<path d="M17.7534 19.6558H1.94969C1.43113 19.6558 0.937265 19.4089 0.640945 18.9891C0.344625 18.5693 0.270545 18.0014 0.443398 17.5075C1.50521 14.5196 3.97455 12.1737 7.03652 11.2848C7.20937 11.2354 7.40692 11.2601 7.57977 11.3342C8.29588 11.7046 9.06138 11.9021 9.85156 11.9021C10.6417 11.9021 11.4072 11.7046 12.1234 11.3342C12.2962 11.2354 12.4938 11.2107 12.6666 11.2848C15.7286 12.1737 18.1732 14.5196 19.2597 17.5075C19.4326 18.0014 19.3585 18.5446 19.0622 18.9891C18.7659 19.4089 18.2967 19.6558 17.7534 19.6558ZM7.01183 12.0503C4.29556 12.9145 2.09785 15.0382 1.13481 17.7297C1.06073 17.9767 1.06073 18.2236 1.1842 18.4458C1.33236 18.7422 1.62868 18.915 1.94969 18.915H17.7287C18.0004 18.915 18.3461 18.7422 18.4942 18.5199C18.6424 18.2977 18.6918 18.0014 18.593 17.7544C17.63 15.0382 15.4323 12.9392 12.716 12.0503C12.5678 12.0009 12.4197 12.0256 12.2962 12.075C10.7899 12.7911 8.9626 12.7911 7.45631 12.075C7.30815 12.0256 7.15999 12.0256 7.01183 12.0503Z" fill="black"/>
</svg>
