<svg width="87" height="86" viewBox="0 0 87 86" fill="none" xmlns="http://www.w3.org/2000/svg">
<path d="M76.875 14.2206V6.5625C76.875 4.92147 76.2157 3.34766 75.0421 2.18728C73.8686 1.0269 72.2769 0.375 70.6172 0.375C68.9575 0.375 67.3658 1.0269 66.1922 2.18728C65.0187 3.34766 64.3594 4.92147 64.3594 6.5625V6.7594C62.9504 8.33625 55.4286 15.5 35.1562 15.5H15.6875C11.6319 15.5045 7.74375 17.0995 4.87602 19.935C2.00829 22.7705 0.395189 26.615 0.390625 30.625V37.5C0.395189 41.51 2.00829 45.3545 4.87602 48.19C7.74375 51.0255 11.6319 52.6205 15.6875 52.625H17.0781V55.375C17.0812 56.2645 17.3755 57.129 17.9169 57.8393C18.4584 58.5496 19.2179 59.0674 20.0819 59.3152L24.5413 80.2606C24.9148 82.0142 25.9776 83.5494 27.4958 84.5282C29.014 85.5071 30.8633 85.8496 32.6369 85.4803C34.4105 85.111 35.9631 84.0602 36.9531 82.559C37.9431 81.0578 38.2894 79.2293 37.9159 77.4757L34.0175 59.1645C34.7674 58.8463 35.4067 58.3178 35.8562 57.6443C36.3057 56.9709 36.5458 56.1819 36.5469 55.375V52.6423C55.6233 52.9655 62.9579 59.8358 64.3594 61.3736V61.5625C64.3594 63.2035 65.0187 64.7773 66.1922 65.9377C67.3658 67.0981 68.9575 67.75 70.6172 67.75C72.2769 67.75 73.8686 67.0981 75.0421 65.9377C76.2157 64.7773 76.875 63.2035 76.875 61.5625V53.9044C79.561 53.5678 82.0309 52.275 83.8226 50.2679C85.6143 48.2608 86.605 45.6771 86.6094 43V25.125C86.605 22.4479 85.6143 19.8642 83.8226 17.8571C82.0309 15.8501 79.561 14.5572 76.875 14.2206V14.2206ZM3.17188 37.5V30.625C3.17568 27.5821 4.31165 24.6469 6.36331 22.3789C8.41496 20.1108 11.2389 18.6684 14.2969 18.3266V49.7984C11.2389 49.4566 8.41496 48.0142 6.36331 45.7461C4.31165 43.4781 3.17568 40.5429 3.17188 37.5V37.5ZM19.8594 52.625H33.7656V55.375C33.7653 55.7396 33.6186 56.0891 33.3579 56.3469C33.0972 56.6047 32.7437 56.7496 32.375 56.75H21.25C20.8813 56.7496 20.5278 56.6047 20.2671 56.3469C20.0064 56.0891 19.8597 55.7396 19.8594 55.375V52.625ZM34.3761 81.3926C33.8936 81.9805 33.2526 82.4213 32.5272 82.6638C31.8019 82.9063 31.0219 82.9407 30.2776 82.7629C29.5333 82.5851 28.8551 82.2025 28.3217 81.6594C27.7883 81.1162 27.4214 80.4348 27.2635 79.6939L22.9638 59.5H31.2465L35.195 78.0424C35.3204 78.6259 35.312 79.2297 35.1702 79.8095C35.0285 80.3892 34.7572 80.9302 34.3761 81.3926V81.3926ZM35.1562 49.875H17.0781V18.25H35.1562C51.8831 18.25 60.5338 13.5288 64.3594 10.5063V57.6187C60.5338 54.5962 51.8831 49.875 35.1562 49.875ZM74.0938 61.5625C74.0938 62.4742 73.7275 63.3485 73.0755 63.9932C72.4235 64.6378 71.5392 65 70.6172 65C69.6951 65 68.8109 64.6378 68.1589 63.9932C67.5069 63.3485 67.1406 62.4742 67.1406 61.5625V6.5625C67.1406 5.65082 67.5069 4.77648 68.1589 4.13182C68.8109 3.48716 69.6951 3.125 70.6172 3.125C71.5392 3.125 72.4235 3.48716 73.0755 4.13182C73.7275 4.77648 74.0938 5.65082 74.0938 6.5625V61.5625ZM83.8281 43C83.8257 44.9491 83.1265 46.8346 81.8542 48.3234C80.5818 49.8122 78.8182 50.8083 76.875 51.1359V16.9891C78.8182 17.3167 80.5818 18.3128 81.8542 19.8016C83.1265 21.2904 83.8257 23.1759 83.8281 25.125V43Z" fill="#2300B0"/>
<path d="M76.875 14.2206V6.5625C76.875 4.92147 76.2157 3.34766 75.0421 2.18728C73.8686 1.0269 72.2769 0.375 70.6172 0.375C68.9575 0.375 67.3658 1.0269 66.1922 2.18728C65.0187 3.34766 64.3594 4.92147 64.3594 6.5625V6.7594C62.9504 8.33625 55.4286 15.5 35.1562 15.5H15.6875C11.6319 15.5045 7.74375 17.0995 4.87602 19.935C2.00829 22.7705 0.395189 26.615 0.390625 30.625V37.5C0.395189 41.51 2.00829 45.3545 4.87602 48.19C7.74375 51.0255 11.6319 52.6205 15.6875 52.625H17.0781V55.375C17.0812 56.2645 17.3755 57.129 17.9169 57.8393C18.4584 58.5496 19.2179 59.0674 20.0819 59.3152L24.5413 80.2606C24.9148 82.0142 25.9776 83.5494 27.4958 84.5282C29.014 85.5071 30.8633 85.8496 32.6369 85.4803C34.4105 85.111 35.9631 84.0602 36.9531 82.559C37.9431 81.0578 38.2894 79.2293 37.9159 77.4757L34.0175 59.1645C34.7674 58.8463 35.4067 58.3178 35.8562 57.6443C36.3057 56.9709 36.5458 56.1819 36.5469 55.375V52.6423C55.6233 52.9655 62.9579 59.8358 64.3594 61.3736V61.5625C64.3594 63.2035 65.0187 64.7773 66.1922 65.9377C67.3658 67.0981 68.9575 67.75 70.6172 67.75C72.2769 67.75 73.8686 67.0981 75.0421 65.9377C76.2157 64.7773 76.875 63.2035 76.875 61.5625V53.9044C79.561 53.5678 82.0309 52.275 83.8226 50.2679C85.6143 48.2608 86.605 45.6771 86.6094 43V25.125C86.605 22.4479 85.6143 19.8642 83.8226 17.8571C82.0309 15.8501 79.561 14.5572 76.875 14.2206V14.2206ZM3.17188 37.5V30.625C3.17568 27.5821 4.31165 24.6469 6.36331 22.3789C8.41496 20.1108 11.2389 18.6684 14.2969 18.3266V49.7984C11.2389 49.4566 8.41496 48.0142 6.36331 45.7461C4.31165 43.4781 3.17568 40.5429 3.17188 37.5V37.5ZM19.8594 52.625H33.7656V55.375C33.7653 55.7396 33.6186 56.0891 33.3579 56.3469C33.0972 56.6047 32.7437 56.7496 32.375 56.75H21.25C20.8813 56.7496 20.5278 56.6047 20.2671 56.3469C20.0064 56.0891 19.8597 55.7396 19.8594 55.375V52.625ZM34.3761 81.3926C33.8936 81.9805 33.2526 82.4213 32.5272 82.6638C31.8019 82.9063 31.0219 82.9407 30.2776 82.7629C29.5333 82.5851 28.8551 82.2025 28.3217 81.6594C27.7883 81.1162 27.4214 80.4348 27.2635 79.6939L22.9638 59.5H31.2465L35.195 78.0424C35.3204 78.6259 35.312 79.2297 35.1702 79.8095C35.0285 80.3892 34.7572 80.9302 34.3761 81.3926V81.3926ZM35.1562 49.875H17.0781V18.25H35.1562C51.8831 18.25 60.5338 13.5288 64.3594 10.5063V57.6187C60.5338 54.5962 51.8831 49.875 35.1562 49.875ZM74.0938 61.5625C74.0938 62.4742 73.7275 63.3485 73.0755 63.9932C72.4235 64.6378 71.5392 65 70.6172 65C69.6951 65 68.8109 64.6378 68.1589 63.9932C67.5069 63.3485 67.1406 62.4742 67.1406 61.5625V6.5625C67.1406 5.65082 67.5069 4.77648 68.1589 4.13182C68.8109 3.48716 69.6951 3.125 70.6172 3.125C71.5392 3.125 72.4235 3.48716 73.0755 4.13182C73.7275 4.77648 74.0938 5.65082 74.0938 6.5625V61.5625ZM83.8281 43C83.8257 44.9491 83.1265 46.8346 81.8542 48.3234C80.5818 49.8122 78.8182 50.8083 76.875 51.1359V16.9891C78.8182 17.3167 80.5818 18.3128 81.8542 19.8016C83.1265 21.2904 83.8257 23.1759 83.8281 25.125V43Z" fill="url(#paint0_linear)"/>
<defs>
<linearGradient id="paint0_linear" x1="43.5" y1="0.375" x2="43.5" y2="85.6253" gradientUnits="userSpaceOnUse">
<stop stop-color="#FF008B"/>
<stop offset="1" stop-color="white" stop-opacity="0"/>
</linearGradient>
</defs>
</svg>
