<svg width="87" height="86" viewBox="0 0 87 86" fill="none" xmlns="http://www.w3.org/2000/svg">
<path d="M86.7078 53.2475L47.7662 14.9225C47.6418 14.8 47.4641 14.7125 47.2686 14.7125L28.1266 14.555C26.8291 12.7175 25.2828 10.8975 23.5055 9.16501C19.702 5.42001 15.4186 2.58501 11.4373 1.18501C7.27832 -0.28499 3.91914 -0.0224901 1.94629 1.90251C0.826563 3.00501 0.257812 4.54501 0.257812 6.47001C0.257812 11.2475 3.72363 17.6175 9.32226 23.1125C11.0285 24.7925 12.877 26.315 14.8143 27.6625L14.9742 46.4925C14.9742 46.6675 15.0453 46.86 15.1875 46.9825L54.1291 85.3075C54.2713 85.4475 54.449 85.5175 54.6268 85.5175C54.8045 85.5175 54.9822 85.4475 55.1244 85.3075L86.7078 54.2275C86.85 54.0875 86.9211 53.9125 86.9211 53.7375C86.9033 53.5625 86.8322 53.3875 86.7078 53.2475ZM14.9031 14.66C14.7787 14.7825 14.7076 14.975 14.7076 15.15L14.7965 25.9125C13.2324 24.775 11.7395 23.4975 10.3354 22.115C5.09219 16.9525 1.69746 10.81 1.69746 6.45251C1.69746 4.91251 2.12402 3.70501 2.97715 2.88251C6.28301 -0.35499 15.223 2.97001 22.5279 10.145C23.9498 11.545 25.2473 13.0325 26.367 14.52L15.4186 14.45C15.2408 14.45 15.0453 14.52 14.9031 14.66ZM54.6268 83.8375L16.3961 46.195L16.1295 15.85L27.3445 15.9375C28.7486 18.02 29.815 20.1025 30.4549 22.0275C30.2061 22.01 29.9395 21.9925 29.6728 21.9925C27.7178 21.9925 25.8871 22.745 24.5008 24.11C21.657 26.91 21.657 31.495 24.5008 34.295C25.8871 35.6425 27.7178 36.395 29.6728 36.395C31.6279 36.395 33.4586 35.6425 34.8449 34.295C37.6887 31.495 37.6887 26.91 34.8449 24.11C34.0451 23.3225 33.0853 22.7275 32.0367 22.3775C31.468 20.3475 30.4549 18.16 29.0508 15.955L46.9486 16.095L85.1793 53.7375L54.6268 83.8375ZM29.8684 30.375C30.0105 30.515 30.1883 30.585 30.366 30.585C30.5437 30.585 30.7215 30.515 30.8637 30.375C31.9834 29.2725 32.5521 27.7325 32.5521 25.8075C32.5521 25.2475 32.4988 24.6525 32.41 24.0575C32.9254 24.32 33.4053 24.67 33.8318 25.09C36.1246 27.3475 36.1246 31.04 33.8318 33.2975C32.7121 34.3825 31.2369 34.995 29.6551 34.995C28.0732 34.995 26.598 34.4 25.4783 33.2975C23.1855 31.04 23.1855 27.3475 25.4783 25.09C26.598 23.9875 28.0732 23.3925 29.6551 23.3925C30.0639 23.3925 30.4549 23.4275 30.8459 23.515C31.0236 24.32 31.1125 25.09 31.1125 25.8075C31.1125 27.3475 30.6859 28.555 29.8328 29.3775C29.6018 29.6575 29.6018 30.1125 29.8684 30.375Z" fill="#2300B0"/>
<path d="M86.7078 53.2475L47.7662 14.9225C47.6418 14.8 47.4641 14.7125 47.2686 14.7125L28.1266 14.555C26.8291 12.7175 25.2828 10.8975 23.5055 9.16501C19.702 5.42001 15.4186 2.58501 11.4373 1.18501C7.27832 -0.28499 3.91914 -0.0224901 1.94629 1.90251C0.826563 3.00501 0.257812 4.54501 0.257812 6.47001C0.257812 11.2475 3.72363 17.6175 9.32226 23.1125C11.0285 24.7925 12.877 26.315 14.8143 27.6625L14.9742 46.4925C14.9742 46.6675 15.0453 46.86 15.1875 46.9825L54.1291 85.3075C54.2713 85.4475 54.449 85.5175 54.6268 85.5175C54.8045 85.5175 54.9822 85.4475 55.1244 85.3075L86.7078 54.2275C86.85 54.0875 86.9211 53.9125 86.9211 53.7375C86.9033 53.5625 86.8322 53.3875 86.7078 53.2475ZM14.9031 14.66C14.7787 14.7825 14.7076 14.975 14.7076 15.15L14.7965 25.9125C13.2324 24.775 11.7395 23.4975 10.3354 22.115C5.09219 16.9525 1.69746 10.81 1.69746 6.45251C1.69746 4.91251 2.12402 3.70501 2.97715 2.88251C6.28301 -0.35499 15.223 2.97001 22.5279 10.145C23.9498 11.545 25.2473 13.0325 26.367 14.52L15.4186 14.45C15.2408 14.45 15.0453 14.52 14.9031 14.66ZM54.6268 83.8375L16.3961 46.195L16.1295 15.85L27.3445 15.9375C28.7486 18.02 29.815 20.1025 30.4549 22.0275C30.2061 22.01 29.9395 21.9925 29.6728 21.9925C27.7178 21.9925 25.8871 22.745 24.5008 24.11C21.657 26.91 21.657 31.495 24.5008 34.295C25.8871 35.6425 27.7178 36.395 29.6728 36.395C31.6279 36.395 33.4586 35.6425 34.8449 34.295C37.6887 31.495 37.6887 26.91 34.8449 24.11C34.0451 23.3225 33.0853 22.7275 32.0367 22.3775C31.468 20.3475 30.4549 18.16 29.0508 15.955L46.9486 16.095L85.1793 53.7375L54.6268 83.8375ZM29.8684 30.375C30.0105 30.515 30.1883 30.585 30.366 30.585C30.5437 30.585 30.7215 30.515 30.8637 30.375C31.9834 29.2725 32.5521 27.7325 32.5521 25.8075C32.5521 25.2475 32.4988 24.6525 32.41 24.0575C32.9254 24.32 33.4053 24.67 33.8318 25.09C36.1246 27.3475 36.1246 31.04 33.8318 33.2975C32.7121 34.3825 31.2369 34.995 29.6551 34.995C28.0732 34.995 26.598 34.4 25.4783 33.2975C23.1855 31.04 23.1855 27.3475 25.4783 25.09C26.598 23.9875 28.0732 23.3925 29.6551 23.3925C30.0639 23.3925 30.4549 23.4275 30.8459 23.515C31.0236 24.32 31.1125 25.09 31.1125 25.8075C31.1125 27.3475 30.6859 28.555 29.8328 29.3775C29.6018 29.6575 29.6018 30.1125 29.8684 30.375Z" fill="url(#paint0_linear)"/>
<path d="M31.3242 53.9125C31.3242 54.105 31.3953 54.28 31.5375 54.4025L55.3184 77.8C55.4605 77.94 55.6383 78.01 55.816 78.01C55.9937 78.01 56.1715 77.94 56.3137 77.8L79.0992 55.4C79.2414 55.26 79.3125 55.085 79.3125 54.91C79.3125 54.7175 79.2414 54.5425 79.0992 54.42L55.3006 31.0225C55.0162 30.7425 54.5719 30.7425 54.2875 31.0225L31.502 53.4225C31.3953 53.5625 31.3242 53.7375 31.3242 53.9125ZM54.8029 32.51L77.5707 54.9275L55.7982 76.33L33.0305 53.93L54.8029 32.51Z" fill="#2300B0"/>
<path d="M31.3242 53.9125C31.3242 54.105 31.3953 54.28 31.5375 54.4025L55.3184 77.8C55.4605 77.94 55.6383 78.01 55.816 78.01C55.9937 78.01 56.1715 77.94 56.3137 77.8L79.0992 55.4C79.2414 55.26 79.3125 55.085 79.3125 54.91C79.3125 54.7175 79.2414 54.5425 79.0992 54.42L55.3006 31.0225C55.0162 30.7425 54.5719 30.7425 54.2875 31.0225L31.502 53.4225C31.3953 53.5625 31.3242 53.7375 31.3242 53.9125ZM54.8029 32.51L77.5707 54.9275L55.7982 76.33L33.0305 53.93L54.8029 32.51Z" fill="url(#paint1_linear)"/>
<path d="M56.5826 39.9131C56.2982 39.6331 55.8539 39.6331 55.5695 39.9131L40.5688 54.6656C40.2844 54.9456 40.2844 55.3831 40.5688 55.6631C40.7109 55.8031 40.8887 55.8731 41.0664 55.8731C41.2441 55.8731 41.4219 55.8031 41.5641 55.6631L56.5648 40.9106C56.8492 40.6306 56.8492 40.1931 56.5826 39.9131Z" fill="#2300B0"/>
<path d="M56.5826 39.9131C56.2982 39.6331 55.8539 39.6331 55.5695 39.9131L40.5688 54.6656C40.2844 54.9456 40.2844 55.3831 40.5688 55.6631C40.7109 55.8031 40.8887 55.8731 41.0664 55.8731C41.2441 55.8731 41.4219 55.8031 41.5641 55.6631L56.5648 40.9106C56.8492 40.6306 56.8492 40.1931 56.5826 39.9131Z" fill="url(#paint2_linear)"/>
<path d="M63.3014 46.544C63.017 46.264 62.5727 46.264 62.2883 46.544L47.2875 61.2965C47.0031 61.5765 47.0031 62.014 47.2875 62.294C47.4297 62.434 47.6074 62.504 47.7852 62.504C47.9629 62.504 48.1406 62.434 48.2828 62.294L63.2836 47.5415C63.5857 47.2615 63.5857 46.8065 63.3014 46.544Z" fill="#2300B0"/>
<path d="M63.3014 46.544C63.017 46.264 62.5727 46.264 62.2883 46.544L47.2875 61.2965C47.0031 61.5765 47.0031 62.014 47.2875 62.294C47.4297 62.434 47.6074 62.504 47.7852 62.504C47.9629 62.504 48.1406 62.434 48.2828 62.294L63.2836 47.5415C63.5857 47.2615 63.5857 46.8065 63.3014 46.544Z" fill="url(#paint3_linear)"/>
<path d="M70.0357 53.1612C69.7514 52.8812 69.307 52.8812 69.0227 53.1612L54.0219 67.9137C53.7375 68.1937 53.7375 68.6312 54.0219 68.9112C54.1641 69.0512 54.3418 69.1212 54.5195 69.1212C54.6973 69.1212 54.875 69.0512 55.0172 68.9112L70.018 54.1587C70.3201 53.8787 70.3201 53.4412 70.0357 53.1612Z" fill="#2300B0"/>
<path d="M70.0357 53.1612C69.7514 52.8812 69.307 52.8812 69.0227 53.1612L54.0219 67.9137C53.7375 68.1937 53.7375 68.6312 54.0219 68.9112C54.1641 69.0512 54.3418 69.1212 54.5195 69.1212C54.6973 69.1212 54.875 69.0512 55.0172 68.9112L70.018 54.1587C70.3201 53.8787 70.3201 53.4412 70.0357 53.1612Z" fill="url(#paint4_linear)"/>
<defs>
<linearGradient id="paint0_linear" x1="43.5894" y1="0.244141" x2="43.5894" y2="85.5175" gradientUnits="userSpaceOnUse">
<stop stop-color="#FF008B"/>
<stop offset="1" stop-color="white" stop-opacity="0"/>
</linearGradient>
<linearGradient id="paint1_linear" x1="55.3184" y1="30.8125" x2="55.3184" y2="78.01" gradientUnits="userSpaceOnUse">
<stop stop-color="#FF008B"/>
<stop offset="1" stop-color="white" stop-opacity="0"/>
</linearGradient>
<linearGradient id="paint2_linear" x1="48.5679" y1="39.7031" x2="48.5679" y2="55.8731" gradientUnits="userSpaceOnUse">
<stop stop-color="#FF008B"/>
<stop offset="1" stop-color="white" stop-opacity="0"/>
</linearGradient>
<linearGradient id="paint3_linear" x1="55.2933" y1="46.334" x2="55.2933" y2="62.504" gradientUnits="userSpaceOnUse">
<stop stop-color="#FF008B"/>
<stop offset="1" stop-color="white" stop-opacity="0"/>
</linearGradient>
<linearGradient id="paint4_linear" x1="62.0277" y1="52.9512" x2="62.0277" y2="69.1212" gradientUnits="userSpaceOnUse">
<stop stop-color="#FF008B"/>
<stop offset="1" stop-color="white" stop-opacity="0"/>
</linearGradient>
</defs>
</svg>
