<svg width="20" height="20" viewBox="0 0 20 20" fill="none" xmlns="http://www.w3.org/2000/svg">
<path d="M8.06 16.12C3.596 16.12 0 12.524 0 8.06C0 3.596 3.596 0 8.06 0C12.524 0 16.12 3.596 16.12 8.06C16.12 12.524 12.524 16.12 8.06 16.12ZM8.06 1.24C4.278 1.24 1.24 4.278 1.24 8.06C1.24 11.842 4.278 14.88 8.06 14.88C11.842 14.88 14.88 11.842 14.88 8.06C14.88 4.278 11.842 1.24 8.06 1.24Z" fill="black"/>
<path d="M14.0642 13.1855L19.6318 18.7531L18.7551 19.6298L13.1875 14.0622L14.0642 13.1855Z" fill="black"/>
</svg>
