<svg width="51" height="51" viewBox="0 0 51 51" fill="none" xmlns="http://www.w3.org/2000/svg">
<path fill-rule="evenodd" clip-rule="evenodd" d="M27.0914 11H28.9616V12.8702C28.9616 14.8542 29.7497 16.757 31.1527 18.1599C32.5556 19.5628 34.4584 20.351 36.4424 20.351V22.2212C34.9905 22.2224 33.5583 21.8849 32.2597 21.2356C30.9611 20.5863 29.8318 19.643 28.9616 18.4808V31.5722C28.9616 33.0517 28.5229 34.4981 27.7008 35.7283C26.8788 36.9585 25.7105 37.9173 24.3436 38.4835C22.9766 39.0497 21.4725 39.1979 20.0214 38.9092C18.5702 38.6206 17.2373 37.9081 16.1911 36.8619C15.1449 35.8157 14.4324 34.4827 14.1437 33.0316C13.8551 31.5805 14.0032 30.0763 14.5694 28.7094C15.1356 27.3425 16.0945 26.1741 17.3247 25.3521C18.5549 24.5301 20.0012 24.0914 21.4808 24.0914V25.9616C20.3711 25.9616 19.2864 26.2906 18.3637 26.9071C17.4411 27.5236 16.7219 28.3999 16.2973 29.4251C15.8726 30.4503 15.7615 31.5784 15.978 32.6668C16.1945 33.7551 16.7289 34.7548 17.5135 35.5395C18.2982 36.3241 19.2979 36.8585 20.3862 37.075C21.4746 37.2915 22.6027 37.1804 23.6279 36.7557C24.6531 36.331 25.5293 35.6119 26.1458 34.6893C26.7623 33.7666 27.0914 32.6819 27.0914 31.5722V11Z" fill="#91A6BF"/>
<path d="M25.0547 0C11.2406 0 0 11.2375 0 25.0531C0 38.8688 11.2406 50.1063 25.0547 50.1063C38.8688 50.1063 50.1094 38.8688 50.1094 25.0531C50.1094 11.2375 38.8688 0 25.0547 0ZM25.0547 48.4375C12.1609 48.4375 1.67188 37.9469 1.67188 25.0531C1.67188 12.1594 12.1609 1.66875 25.0547 1.66875C37.9484 1.66875 48.4375 12.1594 48.4375 25.0531C48.4375 37.9469 37.9484 48.4375 25.0547 48.4375Z" fill="#91A6BF"/>
</svg>
