<svg width="29" height="20" viewBox="0 0 29 20" fill="none" xmlns="http://www.w3.org/2000/svg">
<path d="M27.9724 3.13364C27.6498 1.8894 26.682 0.921659 25.4378 0.599078C23.2258 1.0987e-07 14.2857 0 14.2857 0C14.2857 0 5.34562 1.0987e-07 3.13364 0.599078C1.8894 0.921659 0.921659 1.8894 0.599078 3.13364C0 5.3917 0 10 0 10C0 10 0 14.6544 0.599078 16.8664C0.921659 18.1106 1.8894 19.0783 3.13364 19.4009C5.34562 20 14.2857 20 14.2857 20C14.2857 20 23.2258 20 25.4378 19.4009C26.682 19.0783 27.6498 18.1106 27.9724 16.8664C28.5714 14.6544 28.5714 10 28.5714 10C28.5714 10 28.5714 5.3917 27.9724 3.13364ZM11.4286 14.2857V5.71429L18.8479 10L11.4286 14.2857Z" fill="#2300B0"/>
</svg>
