<svg width="30" height="21" fill="none" xmlns="http://www.w3.org/2000/svg"><path d="M3.422 16.989c.156.857.575 1.579 1.257 2.163.682.585 1.452.877 2.31.877h16.02c.857 0 1.627-.292 2.31-.877a3.645 3.645 0 001.257-2.163l3.39-15.435c.078-.351.02-.683-.175-.994a1.065 1.065 0 00-.818-.527 1.284 1.284 0 00-.994.176 1.065 1.065 0 00-.526.818l-.994 4.912c-.04-.078-.127-.166-.264-.263a2.594 2.594 0 01-.321-.264c-.936-1.091-2.066-1.637-3.391-1.637-1.326 0-2.456.546-3.391 1.637-.546.585-1.072.877-1.579.877-.507 0-1.052-.292-1.637-.877-.936-1.091-2.066-1.637-3.391-1.637-1.364 0-2.475.546-3.333 1.637-.585.585-1.13.877-1.637.877-.507 0-1.052-.292-1.637-.877-.78-.857-1.696-1.403-2.748-1.637l-.585-2.748c-.078-.311-.273-.565-.584-.76-.312-.195-.624-.273-.936-.234C.713.073.45.258.235.59c-.214.331-.282.653-.204.965L3.422 16.99zm.702-9.823c.935 1.092 2.066 1.638 3.391 1.638 1.325 0 2.456-.546 3.391-1.638.546-.584 1.072-.877 1.579-.877.507 0 1.052.293 1.637.877 1.091 1.092 2.222 1.638 3.391 1.638 1.364 0 2.475-.546 3.333-1.638.584-.584 1.13-.877 1.637-.877.506 0 1.052.293 1.637.877.662.663 1.286 1.111 1.87 1.345l-1.753 8.01c-.117.663-.526.994-1.228.994H6.989c-.702 0-1.111-.331-1.228-.994L3.773 6.816l.35.35z" fill="#000"/></svg>