<svg width="30" height="30" fill="none" xmlns="http://www.w3.org/2000/svg"><path d="M27.48 0H2.52C1.816 0 1.22.244.732.732A2.432 2.432 0 000 2.52v24.96c0 .704.244 1.3.732 1.788A2.431 2.431 0 002.52 30h24.96c.704 0 1.3-.244 1.788-.732A2.431 2.431 0 0030 27.48V2.52c0-.704-.244-1.3-.732-1.788A2.432 2.432 0 0027.48 0zm0 27.48H2.52V2.52h24.96v24.96zM15 26.133c3.086 0 5.732-1.094 7.94-3.281 2.206-2.188 3.31-4.844 3.31-7.97 0-3.124-1.094-5.78-3.281-7.968C20.78 4.727 18.125 3.633 15 3.633S9.219 4.727 7.031 6.914C4.844 9.102 3.75 11.758 3.75 14.883s1.094 5.781 3.281 7.969c2.188 2.187 4.844 3.28 7.969 3.28zM15 6.27c2.383 0 4.434.85 6.152 2.548 1.72 1.7 2.578 3.76 2.578 6.182 0 2.422-.85 4.482-2.548 6.182-1.7 1.699-3.76 2.549-6.182 2.549-2.422 0-4.482-.85-6.182-2.55C7.12 19.483 6.27 17.422 6.27 15s.85-4.482 2.548-6.182C10.518 7.12 12.578 6.27 15 6.27z" fill="#000"/></svg>