<svg width="123" height="85" fill="none" xmlns="http://www.w3.org/2000/svg"><path d="M102.691 1.38A4.742 4.742 0 0099.346 0H23.654a4.742 4.742 0 00-3.345 1.38L1.386 20.218A4.7 4.7 0 000 23.548v37.675a4.7 4.7 0 001.386 3.33L20.309 83.39a4.742 4.742 0 003.345 1.38h75.692a4.742 4.742 0 003.345-1.38l18.923-18.838a4.7 4.7 0 001.386-3.33V23.547a4.7 4.7 0 00-1.386-3.33L102.691 1.38zm10.847 57.893l-16.15 16.078H25.612L9.462 59.273V25.497L25.612 9.42h71.775l16.151 16.078v33.776z" fill="#414042"/><path d="M44.487 43.349h-5.37V49h-1.688V36.203h7.928v1.389h-6.24v4.377h5.37v1.38zm15.165-.334c0 1.254-.21 2.35-.633 3.287-.422.931-1.02 1.643-1.793 2.136-.773.492-1.675.738-2.707.738-1.007 0-1.901-.246-2.68-.739-.78-.497-1.386-1.204-1.82-2.118-.427-.92-.647-1.983-.659-3.19v-.923c0-1.23.214-2.317.642-3.26.427-.944 1.031-1.665 1.81-2.163.785-.504 1.682-.756 2.69-.756 1.025 0 1.927.25 2.707.747.785.493 1.388 1.21 1.81 2.154.422.937.633 2.03.633 3.278v.809zm-1.678-.827c0-1.517-.305-2.68-.915-3.489-.609-.814-1.462-1.221-2.557-1.221-1.067 0-1.907.407-2.523 1.221-.609.809-.922 1.934-.94 3.375v.94c0 1.471.307 2.629.923 3.472.62.838 1.473 1.257 2.557 1.257 1.09 0 1.934-.395 2.532-1.186.597-.797.905-1.937.922-3.42v-.949zm8.336 5.432h6.064V49h-7.76V36.203h1.696V47.62zM76.729 49V36.203h3.612c1.114 0 2.098.246 2.953.738a4.966 4.966 0 011.978 2.101c.469.908.706 1.951.712 3.129v.817c0 1.207-.234 2.265-.703 3.173a4.88 4.88 0 01-1.995 2.092c-.862.486-1.867.735-3.015.747h-3.542zm1.688-11.408V47.62h1.775c1.3 0 2.311-.404 3.032-1.213.727-.808 1.09-1.96 1.09-3.454v-.747c0-1.453-.343-2.581-1.028-3.384-.68-.808-1.647-1.219-2.9-1.23h-1.97z" fill="#414042"/></svg>