<svg width="74" height="51" fill="none" xmlns="http://www.w3.org/2000/svg"><path d="M61.782.83A2.853 2.853 0 0059.769 0H14.231c-.755 0-1.479.299-2.012.83L.834 12.163A2.827 2.827 0 000 14.167v22.666c0 .752.3 1.472.834 2.004L12.219 50.17c.533.531 1.257.83 2.012.83h45.538c.755 0 1.479-.299 2.013-.83l11.384-11.333A2.828 2.828 0 0074 36.833V14.167c0-.752-.3-1.472-.834-2.004L61.782.83zm6.526 34.83l-9.717 9.673H15.409L5.692 35.66V15.34l9.717-9.673h43.182l9.717 9.673v20.32z" fill="#5F6368"/><path d="M12.542 31h-.99V18.4h7.038v.936h-6.048v5.184h5.508v.936h-5.508V31zm10.24-6.3c0-1.836.6-3.372 1.8-4.608 1.2-1.236 2.706-1.854 4.518-1.854 1.8 0 3.3.612 4.5 1.836 1.212 1.212 1.818 2.754 1.818 4.626 0 1.836-.606 3.378-1.818 4.626-1.2 1.224-2.7 1.836-4.5 1.836-1.8 0-3.306-.606-4.518-1.818-1.2-1.212-1.8-2.76-1.8-4.644zm1.044 0c0 1.56.504 2.874 1.512 3.942 1.02 1.056 2.274 1.584 3.762 1.584 1.536 0 2.796-.528 3.78-1.584.996-1.068 1.494-2.382 1.494-3.942 0-1.596-.51-2.91-1.53-3.942-1.008-1.056-2.256-1.584-3.744-1.584-1.5 0-2.754.528-3.762 1.584-1.008 1.044-1.512 2.358-1.512 3.942zM48.443 31H40.81V18.4h.99v11.664h6.642V31zm4.891 0h-.162V18.4h.198c.516 0 .996-.006 1.44-.018a96.864 96.864 0 011.584-.036c1.212 0 2.28.168 3.204.504.936.324 1.68.78 2.232 1.368.552.576.96 1.23 1.224 1.962.276.72.414 1.5.414 2.34 0 1.896-.63 3.456-1.89 4.68-1.248 1.224-3.024 1.836-5.328 1.836-.516 0-.99-.006-1.422-.018A54.52 54.52 0 0053.334 31zm3.024-11.718c-.264 0-.654.012-1.17.036-.504.012-.846.018-1.026.018v10.728c.396 0 .768.006 1.116.018.348 0 .6.006.756.018h.252c1.956 0 3.468-.516 4.536-1.548 1.068-1.044 1.602-2.388 1.602-4.032 0-1.548-.51-2.808-1.53-3.78-1.032-.972-2.544-1.458-4.536-1.458z" fill="#414042"/></svg>