<svg width="21" height="20" fill="none" xmlns="http://www.w3.org/2000/svg"><path d="M15.977 15.75a2.083 2.083 0 110 4.167 2.083 2.083 0 010-4.167zm0 1.042a1.041 1.041 0 100 2.082 1.041 1.041 0 000-2.082zM6.602 15.75a2.083 2.083 0 110 4.167 2.083 2.083 0 010-4.167zm0 1.042a1.041 1.041 0 100 2.083 1.041 1.041 0 000-2.083zM18.06 3.25H3.76L6.415 9.5h8.52a1.036 1.036 0 00.834-.419l3.125-4.166h.001a1.042 1.042 0 00-.834-1.665zm-3.125 7.292H6.462l-.798 1.625-.104.458a1.042 1.042 0 001.042 1.042H18.06v1.041H6.602a2.083 2.083 0 01-1.823-3.093l.75-1.536-3.784-8.912H.352V.125h2.083l.884 2.083h14.74a2.083 2.083 0 011.619 3.396l-3.036 4.048a2.08 2.08 0 01-1.707.89z" fill="#414042"/></svg>