<svg width="23" height="20" fill="none" xmlns="http://www.w3.org/2000/svg"><path d="M22.297 18.612l-1.48-13.334a1.25 1.25 0 00-1.243-1.112h-3.858a4.583 4.583 0 00-9.127 0H2.73a1.249 1.249 0 00-1.24 1.112L.008 18.612A1.25 1.25 0 001.25 20h19.805a1.251 1.251 0 001.242-1.388zM11.152.832a3.755 3.755 0 013.727 3.334H7.426A3.755 3.755 0 0111.152.833zm10.214 18.196a.41.41 0 01-.31.139H1.25a.415.415 0 01-.414-.463L2.317 5.37A.416.416 0 012.731 5h16.843a.416.416 0 01.414.37l1.481 13.334a.411.411 0 01-.104.324z" fill="#000"/></svg>