<svg width="24" height="24" fill="none" xmlns="http://www.w3.org/2000/svg"><path d="M18.948 18.947a2.526 2.526 0 110 5.052 2.526 2.526 0 010-5.052zm0 1.264a1.263 1.263 0 100 2.526 1.263 1.263 0 000-2.526zM7.579 18.947a2.526 2.526 0 110 5.053 2.526 2.526 0 010-5.053zm0 1.264a1.263 1.263 0 100 2.526 1.263 1.263 0 000-2.526zM21.474 3.788H4.134l3.218 7.58h10.332a1.256 1.256 0 001.01-.508l3.79-5.053h.002a1.263 1.263 0 00-1.012-2.019zm-3.79 8.843H7.41l-.968 1.97-.126.556a1.263 1.263 0 001.263 1.263h13.895v1.263H7.579a2.526 2.526 0 01-2.21-3.751l.909-1.862L1.69 1.263H0V0h2.526L3.6 2.526h17.875a2.526 2.526 0 011.962 4.118l-3.681 4.909a2.523 2.523 0 01-2.07 1.079z" fill="#000"/></svg>