<svg width="18" height="20" viewBox="0 0 18 20" fill="none" xmlns="http://www.w3.org/2000/svg">
<path d="M8.99963 1.24995C9.8284 1.24995 10.6232 1.57917 11.2092 2.1652C11.7953 2.75123 12.1245 3.54605 12.1245 4.37482V4.99979H5.87476V4.37482C5.87476 3.54605 6.20399 2.75123 6.79002 2.1652C7.37604 1.57917 8.17087 1.24995 8.99963 1.24995V1.24995ZM13.3745 4.99979V4.37482C13.3745 3.21454 12.9135 2.10179 12.0931 1.28135C11.2727 0.460917 10.1599 0 8.99963 0C7.83936 0 6.72661 0.460917 5.90617 1.28135C5.08573 2.10179 4.62482 3.21454 4.62482 4.37482V4.99979H0.25V17.4993C0.25 18.1623 0.513381 18.7981 0.982202 19.267C1.45102 19.7358 2.08688 19.9992 2.7499 19.9992H15.2494C15.9124 19.9992 16.5482 19.7358 17.0171 19.267C17.4859 18.7981 17.7493 18.1623 17.7493 17.4993V4.99979H13.3745ZM1.49995 6.24974H16.4993V17.4993C16.4993 17.8308 16.3676 18.1487 16.1332 18.3831C15.8988 18.6175 15.5809 18.7492 15.2494 18.7492H2.7499C2.41839 18.7492 2.10046 18.6175 1.86605 18.3831C1.63164 18.1487 1.49995 17.8308 1.49995 17.4993V6.24974Z" fill="#231F20"/>
</svg>
