<svg width="20" height="20" fill="none" xmlns="http://www.w3.org/2000/svg"><path d="M9.967-.032c-5.514 0-10 4.485-10 10 0 5.514 4.486 10 10 10 5.513 0 10-4.486 10-10 0-5.515-4.487-10-10-10zm0 19.334c-5.147 0-9.333-4.188-9.333-9.334C.634 4.82 4.82.634 9.967.634c5.146 0 9.332 4.187 9.332 9.334 0 5.146-4.186 9.334-9.332 9.334z" fill="#414042"/><path d="M12.149 4.354h-1.664c-2.119-.021-2.39 1.29-2.39 2.71v1.032H7.16a.278.278 0 00-.312.312v1.871a.278.278 0 00.312.312h.935v4.678a.28.28 0 00.314.311h1.905c.184.022.333-.127.275-.312v-4.677h1.56a.28.28 0 00.3-.186.276.276 0 00.012-.126V8.41a.276.276 0 00-.312-.313h-1.561l.002-.935c.06-.399.06-.334.43-.312h1.116c.087-.02.179-.009.244-.072.064-.063.102-.149.08-.24V4.666a.276.276 0 00-.311-.312zm-.334 1.836l-.782-.03c-.968 0-1.05.526-1.05 1.064l-.002 1.183a.334.334 0 00.333.334h1.523v1.204h-1.522a.334.334 0 00-.333.333v4.679H8.718v-4.678c0-.184-.125-.333-.31-.333h-.937V8.741h.937a.333.333 0 00.236-.097c.062-.063.073-.148.073-.237V7.063C8.718 5.665 9.001 5 10.484 5h1.33v1.19h.001z" fill="#414042"/></svg>