<svg width="22" height="20" fill="none" xmlns="http://www.w3.org/2000/svg"><path d="M11 20l-.388-.337C2.265 12.593 0 10.101 0 6.061 0 2.694 2.588 0 5.824 0 8.476 0 9.964 1.549 11 2.76 12.035 1.55 13.524 0 16.177 0 19.412 0 22 2.694 22 6.06c0 4.041-2.265 6.533-10.612 13.603L11 20zM5.824 1.347c-2.524 0-4.53 2.087-4.53 4.714 0 3.434 2.07 5.723 9.706 12.188 7.635-6.464 9.706-8.754 9.706-12.188 0-2.627-2.006-4.714-4.53-4.714-2.264 0-3.494 1.414-4.464 2.559L11 4.78l-.712-.875c-.97-1.145-2.2-2.56-4.464-2.56z" fill="#231F20"/></svg>