<svg width="50" height="56" fill="none" xmlns="http://www.w3.org/2000/svg"><path d="M27.028 25.43c7.292 0 13.203-5.469 13.203-12.215C40.231 6.469 34.32 1 27.028 1S13.825 6.469 13.825 13.215c0 6.746 5.911 12.215 13.203 12.215z" fill="#000" stroke="#000" stroke-miterlimit="10"/><path d="M26.648 1.053H1v24.376h25.648V1.053z" fill="#000" stroke="#000" stroke-miterlimit="10"/><path d="M34.203 55.241C42.375 55.241 49 49.163 49 41.664c0-7.498-6.625-13.576-14.797-13.576s-14.796 6.078-14.796 13.576c0 7.499 6.624 13.577 14.796 13.577z" fill="#000" stroke="#000" stroke-width=".75" stroke-miterlimit="10"/><path d="M35.338 28.148H1v27.033h34.338V28.148z" fill="#000" stroke="#000" stroke-miterlimit="10"/><path d="M26.526 21.367c4.867 0 8.812-3.65 8.812-8.152 0-4.503-3.945-8.152-8.812-8.152-4.867 0-8.813 3.65-8.813 8.152 0 4.502 3.946 8.152 8.813 8.152z" fill="#FA15FF" stroke="#FA15FF" stroke-miterlimit="10"/></svg>