<svg width="20" height="20" fill="none" xmlns="http://www.w3.org/2000/svg"><path fill-rule="evenodd" clip-rule="evenodd" d="M11.175 3.214h.932v.93a3.726 3.726 0 003.725 3.726v.932a4.648 4.648 0 01-3.725-1.863v6.52A3.726 3.726 0 118.38 9.733v.931a2.794 2.794 0 102.794 2.795V3.214z" fill="#414042"/><path d="M10 0C4.486 0 0 4.485 0 10c0 5.514 4.486 10 10 10s10-4.486 10-10c0-5.515-4.486-10-10-10zm0 19.334C4.854 19.334.667 15.147.667 10 .667 4.853 4.854.666 10 .666S19.333 4.853 19.333 10c0 5.147-4.187 9.334-9.333 9.334z" fill="#414042"/></svg>