<svg width="23" height="23" fill="none" xmlns="http://www.w3.org/2000/svg"><path d="M17.34 21.722H5.66a1.871 1.871 0 01-1.827-1.917V7.175h1.278v12.63a.594.594 0 00.55.64h11.678a.595.595 0 00.55-.64V7.175h1.277v12.63a1.873 1.873 0 01-1.827 1.917zM19.665 5.75H3.195a.639.639 0 110-1.278h16.47a.64.64 0 010 1.278z" fill="#000"/><path d="M13.417 8.306h1.277v9.583h-1.277V8.306zm-5.111 0h1.277v9.583H8.306V8.306zm6.388-4.562H13.48V2.556H9.52v1.188H8.305V2.556a1.278 1.278 0 011.213-1.278h3.961a1.278 1.278 0 011.214 1.278v1.188z" fill="#000"/></svg>