<svg width="20" height="20" fill="none" xmlns="http://www.w3.org/2000/svg"><path d="M9.852 11.26a5.628 5.628 0 01-5.63-5.63A5.628 5.628 0 019.852 0a5.628 5.628 0 015.63 5.63 5.628 5.628 0 01-5.63 5.63zm0-10.495a4.9 4.9 0 00-4.89 4.89c0 2.691 2.198 4.864 4.89 4.864A4.9 4.9 0 0014.74 5.63c0-2.691-2.198-4.865-4.89-4.865z" fill="#414042"/><path d="M17.753 19.656H1.95a1.603 1.603 0 01-1.31-.667 1.657 1.657 0 01-.197-1.482 9.993 9.993 0 016.594-6.222.83.83 0 01.543.05c.716.37 1.481.567 2.272.567.79 0 1.555-.197 2.271-.568a.608.608 0 01.544-.05c3.062.89 5.506 3.236 6.593 6.223a1.667 1.667 0 01-.198 1.482 1.57 1.57 0 01-1.309.667zM7.012 12.05a9.267 9.267 0 00-5.877 5.68c-.074.247-.074.494.05.716a.846.846 0 00.765.469h15.779c.271 0 .617-.173.765-.395a.847.847 0 00.099-.766c-.963-2.716-3.16-4.815-5.877-5.704a.607.607 0 00-.42.025 5.72 5.72 0 01-4.84 0 .907.907 0 00-.444-.025z" fill="#414042"/></svg>